<?xml version="1.0" encoding="UTF-8"?>
<svg xmlns="http://www.w3.org/2000/svg" xmlns:xlink="http://www.w3.org/1999/xlink" width="80px" height="80px" viewBox="0 0 80 80" version="1.1">
<defs>
<filter id="alpha" filterUnits="objectBoundingBox" x="0%" y="0%" width="100%" height="100%">
  <feColorMatrix type="matrix" in="SourceGraphic" values="0 0 0 0 1 0 0 0 0 1 0 0 0 0 1 0 0 0 1 0"/>
</filter>
<mask id="mask0">
  <g filter="url(#alpha)">
<rect x="0" y="0" width="80" height="80" style="fill:rgb(0%,0%,0%);fill-opacity:0.109804;stroke:none;"/>
  </g>
</mask>
<clipPath id="clip1">
  <rect x="0" y="0" width="80" height="80"/>
</clipPath>
<g id="surface5" clip-path="url(#clip1)">
<path style=" stroke:none;fill-rule:evenodd;fill:rgb(0%,0%,0%);fill-opacity:1;" d="M 50.699219 50.171875 L 50.699219 54.355469 C 44.574219 61.511719 32.871094 60.5 30.246094 49.9375 Z M 50.699219 50.171875 "/>
</g>
</defs>
<g id="surface1">
<path style=" stroke:none;fill-rule:nonzero;fill:rgb(34.509804%,69.019608%,87.843137%);fill-opacity:1;" d="M 80 40 C 80 62.089844 62.089844 80 40 80 C 17.910156 80 0 62.089844 0 40 C 0 17.910156 17.910156 0 40 0 C 62.089844 0 80 17.910156 80 40 Z M 80 40 "/>
<path style=" stroke:none;fill-rule:evenodd;fill:rgb(97.647059%,86.27451%,64.313725%);fill-opacity:1;" d="M 30.105469 50.070312 L 50.695312 50.226562 L 50.695312 66.949219 L 30.105469 66.792969 Z M 30.105469 50.070312 "/>
<path style=" stroke:none;fill-rule:evenodd;fill:rgb(90.196078%,90.196078%,90.196078%);fill-opacity:1;" d="M 56.921875 76.253906 C 46.328125 81.1875 34.113281 81.25 23.464844 76.433594 L 23.464844 62.675781 L 56.917969 62.675781 Z M 56.921875 76.253906 "/>
<path style=" stroke:none;fill-rule:evenodd;fill:rgb(91.372549%,34.117647%,24.313725%);fill-opacity:1;" d="M 43.242188 79.871094 C 42.171875 79.957031 41.09375 80 40 80 C 39.175781 80 38.359375 79.976562 37.546875 79.925781 L 38.878906 68.292969 L 42 68.292969 Z M 43.242188 79.871094 "/>
<path style=" stroke:none;fill-rule:evenodd;fill:rgb(40.392157%,43.921569%,47.45098%);fill-opacity:1;" d="M 33.214844 79.394531 C 28.804688 78.574219 24.542969 77.082031 20.582031 74.976562 C 16.777344 72.859375 13.34375 70.140625 10.410156 66.917969 L 12.074219 62.90625 L 30.101562 54.863281 C 30.101562 61.613281 32.316406 72.316406 33.214844 79.394531 Z M 33.214844 79.394531 "/>
<use xlink:href="#surface5" mask="url(#mask0)"/>
<path style=" stroke:none;fill-rule:evenodd;fill:rgb(100%,90.980392%,74.509804%);fill-opacity:1;" d="M 40.296875 10.914062 C 67.84375 10.914062 57.109375 56.566406 40.296875 56.566406 C 24.417969 56.566406 12.75 10.914062 40.296875 10.914062 Z M 40.296875 10.914062 "/>
<path style=" stroke:none;fill-rule:evenodd;fill:rgb(97.647059%,86.27451%,64.313725%);fill-opacity:1;" d="M 23.773438 31.128906 C 19.800781 32.859375 23.179688 41.078125 25.679688 41.039062 C 24.640625 37.828125 24 34.496094 23.773438 31.125 Z M 23.773438 31.128906 "/>
<path style=" stroke:none;fill-rule:evenodd;fill:rgb(97.647059%,86.27451%,64.313725%);fill-opacity:1;" d="M 57.140625 31.125 C 61.113281 32.859375 57.734375 41.078125 55.234375 41.039062 C 56.273438 37.824219 56.910156 34.496094 57.140625 31.125 Z M 57.140625 31.125 "/>
<path style=" stroke:none;fill-rule:evenodd;fill:rgb(27.45098%,26.666667%,28.627451%);fill-opacity:1;" d="M 28.390625 18.546875 C 24.074219 23.023438 25.59375 35.414062 25.59375 35.414062 L 24.234375 34.773438 C 15.75 1.902344 65.183594 1.898438 56.652344 34.773438 L 55.292969 35.414062 C 55.292969 35.414062 56.8125 23.023438 52.496094 18.546875 C 47.164062 23.71875 33.691406 23.691406 28.390625 18.546875 Z M 28.390625 18.546875 "/>
<path style=" stroke:none;fill-rule:evenodd;fill:rgb(40.392157%,43.921569%,47.45098%);fill-opacity:1;" d="M 47.59375 79.277344 C 56.34375 77.589844 64.273438 73.023438 70.128906 66.3125 L 68.71875 62.90625 L 50.695312 54.863281 C 50.695312 61.609375 48.492188 72.199219 47.59375 79.277344 Z M 47.59375 79.277344 "/>
<path style=" stroke:none;fill-rule:evenodd;fill:rgb(100%,100%,100%);fill-opacity:1;" d="M 50.695312 54.34375 L 40.433594 62.710938 L 48.945312 70.367188 C 48.945312 70.367188 51.210938 57.804688 50.695312 54.34375 Z M 50.695312 54.34375 "/>
<path style=" stroke:none;fill-rule:evenodd;fill:rgb(100%,100%,100%);fill-opacity:1;" d="M 30.101562 54.34375 L 40.441406 62.710938 L 31.839844 70.367188 C 31.839844 70.367188 29.582031 57.804688 30.101562 54.34375 Z M 30.101562 54.34375 "/>
<path style=" stroke:none;fill-rule:evenodd;fill:rgb(91.372549%,34.117647%,24.313725%);fill-opacity:1;" d="M 36.386719 66.3125 L 40.449219 62.664062 L 44.507812 66.3125 L 40.449219 69.960938 Z M 36.386719 66.3125 "/>
<path style=" stroke:none;fill-rule:evenodd;fill:rgb(26.27451%,28.627451%,33.333333%);fill-opacity:1;" d="M 33.355469 79.449219 C 31.703125 79.171875 30.070312 78.789062 28.464844 78.308594 C 28.414062 78.269531 28.363281 78.230469 28.316406 78.1875 L 23.738281 69.917969 L 29.617188 65.695312 L 23.464844 65.695312 L 24.785156 56.828125 L 30.105469 53.464844 C 30.335938 63.003906 32.378906 73.730469 33.355469 79.449219 Z M 33.355469 79.449219 "/>
<path style=" stroke:none;fill-rule:evenodd;fill:rgb(26.27451%,28.627451%,33.333333%);fill-opacity:1;" d="M 47.4375 79.308594 C 48.199219 79.183594 48.953125 79.007812 49.699219 78.8125 C 50.582031 78.582031 51.460938 78.324219 52.332031 78.0625 L 52.503906 78.007812 L 57.050781 69.832031 L 51.171875 65.636719 L 57.324219 65.636719 L 56.007812 56.808594 L 50.6875 53.464844 C 50.457031 62.953125 48.410156 73.621094 47.4375 79.308594 Z M 47.4375 79.308594 "/>
</g>
</svg>
